HIERARCHY
ROOT Hips
{
	OFFSET 0.000000 0.000000 0.000000
	CHANNELS 6 Xposition Yposition Zposition Zrotation Yrotation Xrotation 
	JOINT LHipJoint
	{
		OFFSET 0.000000 0.000000 0.000000
		CHANNELS 3 Zrotation Yrotation Xrotation
		JOINT LeftUpLeg
		{
			OFFSET 1.363060 -1.794630 0.839290
			CHANNELS 3 Zrotation Yrotation Xrotation
			JOINT LeftLeg
			{
				OFFSET 2.448110 -6.726130 0.000000
				CHANNELS 3 Zrotation Yrotation Xrotation
				JOINT LeftFoot
				{
					OFFSET 2.562200 -7.039590 0.000000
					CHANNELS 3 Zrotation Yrotation Xrotation
					JOINT LeftToeBase
					{
						OFFSET 0.157640 -0.433110 2.322550
						CHANNELS 3 Zrotation Yrotation Xrotation
						End Site
						{
							OFFSET 0.000000 0.000000 0.000000
						}
					}
				}
			}
		}
	}
	JOINT RHipJoint
	{
		OFFSET 0.000000 0.000000 0.000000
		CHANNELS 3 Zrotation Yrotation Xrotation
		JOINT RightUpLeg
		{
			OFFSET -1.305520 -1.794630 0.839290
			CHANNELS 3 Zrotation Yrotation Xrotation
			JOINT RightLeg
			{
				OFFSET -2.542530 -6.985550 0.000000
				CHANNELS 3 Zrotation Yrotation Xrotation
				JOINT RightFoot
				{
					OFFSET -2.568260 -7.056230 0.000000
					CHANNELS 3 Zrotation Yrotation Xrotation
					JOINT RightToeBase
					{
						OFFSET -0.164730 -0.452590 2.363150
						CHANNELS 3 Zrotation Yrotation Xrotation
						End Site
						{
							OFFSET 0.000000 0.000000 0.000000
						}
					}
				}
			}
		}
	}
	JOINT LowerBack
	{
		OFFSET 0.000000 0.000000 0.000000
		CHANNELS 3 Zrotation Yrotation Xrotation
		JOINT Spine
		{
			OFFSET 0.028270 2.035590 -0.193380
			CHANNELS 3 Zrotation Yrotation Xrotation
			JOINT Spine1
			{
				OFFSET 0.056720 2.048850 -0.042750
				CHANNELS 3 Zrotation Yrotation Xrotation
				JOINT Neck
				{
					OFFSET 0.000000 0.000000 0.000000
					CHANNELS 3 Zrotation Yrotation Xrotation
					JOINT Neck1
					{
						OFFSET -0.054170 1.746240 0.172020
						CHANNELS 3 Zrotation Yrotation Xrotation
						JOINT Head
						{
							OFFSET 0.104070 1.761360 -0.123970
							CHANNELS 3 Zrotation Yrotation Xrotation
							End Site
							{
								OFFSET 0.000000 0.000000 0.000000
							}
						}
					}
				}
				JOINT LeftShoulder
				{
					OFFSET 0.000000 0.000000 0.000000
					CHANNELS 3 Zrotation Yrotation Xrotation
					JOINT LeftArm
					{
						OFFSET 3.362410 1.200890 -0.311210
						CHANNELS 3 Zrotation Yrotation Xrotation
						JOINT LeftForeArm
						{
							OFFSET 4.983000 -0.000000 -0.000000
							CHANNELS 3 Zrotation Yrotation Xrotation
							JOINT LeftHand
							{
								OFFSET 3.483560 -0.000000 -0.000000
								CHANNELS 3 Zrotation Yrotation Xrotation
								JOINT LeftFingerBase
								{
									OFFSET 0.000000 0.000000 0.000000
									CHANNELS 3 Zrotation Yrotation Xrotation
									JOINT LeftHandIndex1
									{
										OFFSET 0.715260 -0.000000 -0.000000
										CHANNELS 3 Zrotation Yrotation Xrotation
										End Site
										{
											OFFSET 0.000000 0.000000 0.000000
										}
									}
								}
								JOINT LThumb
								{
									OFFSET 0.000000 0.000000 0.000000
									CHANNELS 3 Zrotation Yrotation Xrotation
									End Site
									{
										OFFSET 0.000000 0.000000 0.000000
									}
								}
							}
						}
					}
				}
				JOINT RightShoulder
				{
					OFFSET 0.000000 0.000000 0.000000
					CHANNELS 3 Zrotation Yrotation Xrotation
					JOINT RightArm
					{
						OFFSET -3.136600 1.374050 -0.404650
						CHANNELS 3 Zrotation Yrotation Xrotation
						JOINT RightForeArm
						{
							OFFSET -5.241900 -0.000000 -0.000000
							CHANNELS 3 Zrotation Yrotation Xrotation
							JOINT RightHand
							{
								OFFSET -3.444170 -0.000000 -0.000000
								CHANNELS 3 Zrotation Yrotation Xrotation
								JOINT RightFingerBase
								{
									OFFSET 0.000000 0.000000 0.000000
									CHANNELS 3 Zrotation Yrotation Xrotation
									JOINT RightHandIndex1
									{
										OFFSET -0.622530 -0.000000 -0.000000
										CHANNELS 3 Zrotation Yrotation Xrotation
										End Site
										{
											OFFSET 0.000000 0.000000 0.000000
										}
									}
								}
								JOINT RThumb
								{
									OFFSET 0.000000 0.000000 0.000000
									CHANNELS 3 Zrotation Yrotation Xrotation
									End Site
									{
										OFFSET 0.000000 0.000000 0.000000
									}
								}
							}
						}
					}
				}
			}
		}
	}
}
MOTION
Frames: 4
Frame Time: 0.008333
-0.713575 18.603282 4.918839 -0.594849 0.940967 12.935373 2.803832 3.749088 3.698890 -12.625109 -14.097754 -19.495747 0.535466 6.025261 19.824902 -1.727823 9.914203 -9.243445 8.169100 -16.242300 -53.169700 -2.519558 -4.435358 3.802844 16.154342 6.413936 -11.109178 0.333748 0.686633 1.400556 1.056711 -9.492586 -11.461721 -0.001500 -0.250000 0.686900 -0.966881 0.632947 18.583650 10.366293 -2.909222 33.344164 -0.640148 0.576157 -30.434974 -6.068186 -3.508560 -37.554825 2.446419 -2.415559 14.290037 1.134700 -1.090700 7.877500 -1.243243 -0.513858 -1.317157 35.114612 -63.153959 -63.166156 17.819617 -26.165194 -3.186125 -0.732191 0.362961 49.338968 -3.270330 -14.127403 0.601700 -7.125000 0.000000 0.000000 -20.221400 16.623600 14.533700 -0.605363 2.172701 -1.661427 -34.738692 56.806348 -45.709340 -24.329650 36.406695 -6.091591 -1.886358 -1.568126 41.712098 -16.972241 -49.570151 12.350300 7.125000 0.000000 0.000000 43.367000 -74.743200 -31.755600 
-0.716121 18.603673 4.940579 -0.646996 0.935046 13.010915 2.823694 3.734853 3.680690 -12.550342 -14.295149 -19.375026 0.523988 6.009543 19.793737 -1.751290 10.050917 -9.483377 8.129300 -16.213500 -53.027000 -2.494979 -4.440636 3.807232 16.190411 6.451285 -11.111489 0.333962 0.680368 1.397377 1.051335 -9.480813 -11.501616 -0.001100 -0.213500 0.586500 -1.074557 0.644255 18.447397 10.597954 -2.978771 33.188937 -0.643058 0.567187 -30.496884 -6.156840 -3.474017 -37.469083 2.484756 -2.348142 14.321719 1.175000 -1.058100 7.859900 -1.215281 -0.474444 -1.319470 32.454459 -61.971094 -60.427907 17.919675 -26.122871 -3.179056 -0.753159 0.375956 49.431864 -3.604510 -14.229668 0.680800 -7.125000 0.000000 0.000000 -20.411800 16.538500 14.731400 -0.686660 2.149685 -1.669090 -33.439691 55.699757 -44.269875 -24.366325 36.285615 -6.060469 -1.919981 -1.601282 41.537074 -16.928769 -49.432280 12.274100 7.125000 0.000000 0.000000 42.885500 -74.605700 -31.259300 
-0.719548 18.603282 4.961534 -0.490996 0.753145 12.977349 2.699541 3.793016 3.778885 -12.580947 -14.378401 -19.278184 0.509916 6.010100 19.749868 -1.760557 10.132391 -9.638878 8.113300 -16.202000 -52.969800 -2.607210 -4.418824 3.805310 16.125384 6.473746 -11.012824 0.334737 0.709236 1.411369 1.041208 -9.404916 -11.544532 -0.001000 -0.202600 0.556600 -0.530761 0.583179 18.006926 9.205747 -2.627926 33.851588 -0.485719 0.591948 -30.284903 -5.611776 -3.487159 -38.572531 2.344429 -2.519529 14.679577 1.060700 -1.127300 8.126900 -1.025518 -0.568607 -1.349416 31.838186 -60.844900 -59.909280 17.901348 -25.941383 -3.131094 -0.777735 0.388855 49.854083 -4.046082 -14.406947 0.790600 -7.125000 0.000000 0.000000 -20.662600 16.390500 15.011400 -0.603948 2.053045 -1.717889 -32.226508 54.145304 -43.841693 -24.353999 36.053719 -5.978506 -1.968006 -1.625776 41.737998 -16.826801 -49.019105 12.099000 7.125000 0.000000 0.000000 41.680300 -74.259900 -30.027600 
-0.723857 18.602498 4.981315 -0.396021 0.646538 12.962101 2.636184 3.821282 3.830174 -12.635406 -14.277305 -19.241508 0.505004 6.003504 19.715851 -1.754626 10.110220 -9.627541 8.132300 -16.215700 -53.038000 -2.665200 -4.414083 3.810785 16.082364 6.495614 -10.941102 0.334391 0.723694 1.418309 1.034057 -9.343102 -11.533492 -0.001500 -0.249100 0.684500 -0.291236 0.581839 17.676544 8.502953 -2.435611 34.234579 -0.371338 0.620130 -30.133312 -5.299948 -3.488634 -39.177429 2.182164 -2.607273 14.887315 0.980800 -1.170700 8.279400 -0.894487 -0.605665 -1.367976 30.664939 -59.783785 -59.191678 17.866248 -25.723838 -3.074535 -0.792430 0.396072 50.360950 -4.098249 -14.447624 0.802000 -7.125000 0.000000 0.000000 -20.685400 16.365300 15.042700 -0.613592 1.987842 -1.741136 -30.978717 52.695025 -43.078481 -24.404348 35.902419 -5.926581 -2.018932 -1.683675 41.916313 -16.218228 -49.228794 11.672300 7.125000 0.000000 0.000000 42.635600 -74.120900 -30.656300 
